<svg width="19" height="9" viewBox="0 0 19 9" fill="none" xmlns="http://www.w3.org/2000/svg">
<path d="M4.85387 0.272727V9H3.0087V2.02415H2.95756L0.958984 3.27699V1.64062L3.1195 0.272727H4.85387ZM6.92809 9V7.67045L10.0346 4.79403C10.2988 4.53835 10.5204 4.30824 10.6994 4.10369C10.8812 3.89915 11.019 3.69886 11.1127 3.50284C11.2065 3.30398 11.2534 3.08949 11.2534 2.85938C11.2534 2.60369 11.1951 2.38352 11.0787 2.19886C10.9622 2.01136 10.8031 1.8679 10.6014 1.76847C10.3997 1.66619 10.171 1.61506 9.91531 1.61506C9.64826 1.61506 9.41531 1.66903 9.21644 1.77699C9.01758 1.88494 8.86417 2.03977 8.75621 2.24148C8.64826 2.44318 8.59428 2.68324 8.59428 2.96165H6.84286C6.84286 2.39062 6.97212 1.89489 7.23065 1.47443C7.48917 1.05398 7.85138 0.728693 8.31729 0.498579C8.7832 0.268466 9.32013 0.153409 9.92809 0.153409C10.5531 0.153409 11.0971 0.264204 11.5602 0.485795C12.0261 0.704545 12.3883 1.00852 12.6468 1.39773C12.9054 1.78693 13.0346 2.23295 13.0346 2.7358C13.0346 3.06534 12.9693 3.39062 12.8386 3.71165C12.7108 4.03267 12.4821 4.3892 12.1525 4.78125C11.823 5.17045 11.3585 5.63778 10.7591 6.18324L9.48491 7.43182V7.49148H13.1497V9H6.92809ZM18.2836 0.272727V9H16.4384V2.02415H16.3873L14.3887 3.27699V1.64062L16.5492 0.272727H18.2836Z" fill="#7F35FF"/>
</svg>
